<?xml version="1.0"?>
<svg xmlns="http://www.w3.org/2000/svg" xmlns:xlink="http://www.w3.org/1999/xlink" xmlns:svgjs="http://svgjs.com/svgjs" version="1.1" width="512" height="512" x="0" y="0" viewBox="0 0 511.989 511.989" style="enable-background:new 0 0 512 512" xml:space="preserve" class=""><g>
<path xmlns="http://www.w3.org/2000/svg" style="" d="M449.363,97.952c-42.842-42.524-111.969-42.524-154.811,0l-38.581,38.581L217.39,97.952  c-46.468-39.032-115.779-33.001-154.811,13.479c-34.32,40.864-34.32,100.481,0,141.345l193.392,193.27l154.811-154.689  l38.581-38.581C491.887,209.921,491.887,140.794,449.363,97.952z" fill="#ffd4bb" data-original="#bef2ff" class=""/>
<path xmlns="http://www.w3.org/2000/svg" style="" d="M255.971,476.678c-8.095,0.012-15.872-3.187-21.61-8.913L40.969,274.251  c-54.648-54.684-54.623-143.322,0.061-197.97S184.353,21.657,239,76.342l17.093,17.093l17.093-17.093  c54.623-54.648,143.213-54.672,197.873-0.037c0.012,0.012,0.024,0.024,0.037,0.037l0,0c54.526,54.697,54.526,143.213,0,197.909  L277.581,467.643C271.867,473.406,264.09,476.665,255.971,476.678z M139.618,96.487c-43.562,0.171-78.724,35.626-78.553,79.188  c0.085,20.646,8.253,40.436,22.758,55.112l172.148,172.148l171.904-171.782c30.767-30.84,30.767-80.751,0-111.591l0,0  c-30.791-30.816-80.726-30.84-111.542-0.049c-0.012,0.012-0.037,0.037-0.049,0.049l-38.703,38.581  c-11.904,11.94-31.231,11.965-43.171,0.049c-0.012-0.012-0.037-0.037-0.049-0.049l-38.581-38.581  C180.897,104.679,160.667,96.365,139.618,96.487z" fill="#ffffff" data-original="#4f7097" class=""/>
<g xmlns="http://www.w3.org/2000/svg">
</g>
<g xmlns="http://www.w3.org/2000/svg">
</g>
<g xmlns="http://www.w3.org/2000/svg">
</g>
<g xmlns="http://www.w3.org/2000/svg">
</g>
<g xmlns="http://www.w3.org/2000/svg">
</g>
<g xmlns="http://www.w3.org/2000/svg">
</g>
<g xmlns="http://www.w3.org/2000/svg">
</g>
<g xmlns="http://www.w3.org/2000/svg">
</g>
<g xmlns="http://www.w3.org/2000/svg">
</g>
<g xmlns="http://www.w3.org/2000/svg">
</g>
<g xmlns="http://www.w3.org/2000/svg">
</g>
<g xmlns="http://www.w3.org/2000/svg">
</g>
<g xmlns="http://www.w3.org/2000/svg">
</g>
<g xmlns="http://www.w3.org/2000/svg">
</g>
<g xmlns="http://www.w3.org/2000/svg">
</g>
</g></svg>
