<?xml version="1.0"?>
<svg xmlns="http://www.w3.org/2000/svg" xmlns:xlink="http://www.w3.org/1999/xlink" xmlns:svgjs="http://svgjs.com/svgjs" version="1.1" width="512" height="512" x="0" y="0" viewBox="0 0 511.996 511.996" style="enable-background:new 0 0 512 512" xml:space="preserve" class=""><g>
<path xmlns="http://www.w3.org/2000/svg" style="" d="M477.675,34.485L34.38,213.774l133.988,36.542c45.575,12.441,81.173,48.038,93.613,93.613  l36.542,133.988L477.675,34.485z" fill="#ffd4bb" data-original="#bef2ff"/>
<path xmlns="http://www.w3.org/2000/svg" style="" d="M298.523,511.996h-2.053c-14.644-0.89-27.085-11.031-30.931-25.183l-36.542-133.988  c-9.293-33.846-35.694-60.301-69.526-69.663L25.347,246.757c-18.23-4.968-28.987-23.773-24.019-42.003  c2.806-10.319,10.278-18.723,20.187-22.733L464.947,2.459c17.546-7.021,37.459,1.505,44.48,19.051  c3.271,8.157,3.271,17.272,0,25.429L330.275,490.645C325.033,503.565,312.469,512.009,298.523,511.996z M141.269,207.752  l36.132,9.854c57.153,15.753,101.811,60.411,117.564,117.564l9.854,36.132L415.813,96.483L141.269,207.752z" fill="#ffffff" data-original="#4f7097" class=""/>
<g xmlns="http://www.w3.org/2000/svg">
</g>
<g xmlns="http://www.w3.org/2000/svg">
</g>
<g xmlns="http://www.w3.org/2000/svg">
</g>
<g xmlns="http://www.w3.org/2000/svg">
</g>
<g xmlns="http://www.w3.org/2000/svg">
</g>
<g xmlns="http://www.w3.org/2000/svg">
</g>
<g xmlns="http://www.w3.org/2000/svg">
</g>
<g xmlns="http://www.w3.org/2000/svg">
</g>
<g xmlns="http://www.w3.org/2000/svg">
</g>
<g xmlns="http://www.w3.org/2000/svg">
</g>
<g xmlns="http://www.w3.org/2000/svg">
</g>
<g xmlns="http://www.w3.org/2000/svg">
</g>
<g xmlns="http://www.w3.org/2000/svg">
</g>
<g xmlns="http://www.w3.org/2000/svg">
</g>
<g xmlns="http://www.w3.org/2000/svg">
</g>
</g></svg>
