<?xml version="1.0"?>
<svg xmlns="http://www.w3.org/2000/svg" xmlns:xlink="http://www.w3.org/1999/xlink" xmlns:svgjs="http://svgjs.com/svgjs" version="1.1" width="512" height="512" x="0" y="0" viewBox="0 0 512 512" style="enable-background:new 0 0 512 512" xml:space="preserve"><g>
<path xmlns="http://www.w3.org/2000/svg" style="" d="M250.435,449.823c-11.654,0.033-22.094-7.213-26.157-18.143l-66.783-182.094l-26.936,55.652  c-4.775,9.305-14.358,15.16-24.821,15.137H27.826C12.455,320.376,0,307.922,0,292.55s12.455-27.826,27.826-27.826h60.55  l47.972-98.504c6.712-13.824,23.352-19.601,37.176-12.889c6.522,3.161,11.553,8.749,14.024,15.56l58.88,160.835L313.21,82.853  c3.951-14.848,19.2-23.686,34.048-19.734c9.082,2.415,16.328,9.249,19.267,18.176l59.882,183.43h57.767  c15.371,0,27.826,12.455,27.826,27.826s-12.455,27.826-27.826,27.826h-77.913c-11.999-0.022-22.639-7.747-26.379-19.144  l-37.621-114.421l-65.002,242.31c-3.139,11.709-13.49,20.035-25.6,20.591L250.435,449.823z" fill="#ffffff" data-original="#4f7097"/>
<g xmlns="http://www.w3.org/2000/svg">
</g>
<g xmlns="http://www.w3.org/2000/svg">
</g>
<g xmlns="http://www.w3.org/2000/svg">
</g>
<g xmlns="http://www.w3.org/2000/svg">
</g>
<g xmlns="http://www.w3.org/2000/svg">
</g>
<g xmlns="http://www.w3.org/2000/svg">
</g>
<g xmlns="http://www.w3.org/2000/svg">
</g>
<g xmlns="http://www.w3.org/2000/svg">
</g>
<g xmlns="http://www.w3.org/2000/svg">
</g>
<g xmlns="http://www.w3.org/2000/svg">
</g>
<g xmlns="http://www.w3.org/2000/svg">
</g>
<g xmlns="http://www.w3.org/2000/svg">
</g>
<g xmlns="http://www.w3.org/2000/svg">
</g>
<g xmlns="http://www.w3.org/2000/svg">
</g>
<g xmlns="http://www.w3.org/2000/svg">
</g>
</g></svg>
