<?xml version="1.0"?>
<svg xmlns="http://www.w3.org/2000/svg" xmlns:xlink="http://www.w3.org/1999/xlink" xmlns:svgjs="http://svgjs.com/svgjs" version="1.1" width="512" height="512" x="0" y="0" viewBox="0 0 512 512" style="enable-background:new 0 0 512 512" xml:space="preserve" class=""><g>
<circle xmlns="http://www.w3.org/2000/svg" style="" cx="215.091" cy="219.306" r="180.537" fill="#ffd4bb" data-original="#bef2ff" class=""/>
<path xmlns="http://www.w3.org/2000/svg" style="" d="M501.842,451.649L387.688,343.743c69.26-95.853,47.718-229.7-48.135-298.961  S109.866-2.936,40.593,92.904s-47.718,229.7,48.135,298.961c75.768,54.747,178.286,54.031,253.273-1.796l115.065,108.817  c13.042,12.366,33.647,11.806,46.013-1.237C515.444,484.606,514.885,464.014,501.842,451.649L501.842,451.649z M67.095,219.306  c0-81.73,66.266-147.996,147.996-147.996s147.996,66.266,147.996,147.996s-66.266,147.996-147.996,147.996  C133.413,367.159,67.238,300.984,67.095,219.306z" fill="#ffffff" data-original="#4f7097" class=""/>
<g xmlns="http://www.w3.org/2000/svg">
</g>
<g xmlns="http://www.w3.org/2000/svg">
</g>
<g xmlns="http://www.w3.org/2000/svg">
</g>
<g xmlns="http://www.w3.org/2000/svg">
</g>
<g xmlns="http://www.w3.org/2000/svg">
</g>
<g xmlns="http://www.w3.org/2000/svg">
</g>
<g xmlns="http://www.w3.org/2000/svg">
</g>
<g xmlns="http://www.w3.org/2000/svg">
</g>
<g xmlns="http://www.w3.org/2000/svg">
</g>
<g xmlns="http://www.w3.org/2000/svg">
</g>
<g xmlns="http://www.w3.org/2000/svg">
</g>
<g xmlns="http://www.w3.org/2000/svg">
</g>
<g xmlns="http://www.w3.org/2000/svg">
</g>
<g xmlns="http://www.w3.org/2000/svg">
</g>
<g xmlns="http://www.w3.org/2000/svg">
</g>
</g></svg>
