<svg version="1.0" xmlns="http://www.w3.org/2000/svg" width="949.333" height="949.333" viewBox="0 0 712 712"><path d="M3.7 231.1c-1 .6-2.2 2.2-2.7 3.5-1.9 5 .2 6.8 21.9 18.6 78.5 42.5 130 74.4 176.6 109.4 39.4 29.5 75.1 63.5 94.6 90.1 2.4 3.2 5 6.3 5.8 7 2.3 1.8 109.9 1.8 112.1 0 .9-.7 3.8-4.1 6.5-7.7 41.6-55.3 102.6-105.4 188-154.5 15.3-8.7 46.8-25.8 88.8-48 16.1-8.5 17.9-10.3 15.5-15.3-2.6-5.4-4.9-5.2-26 2.8-10.6 4-34.1 13.4-52.3 20.7-70.6 28.7-94.9 38.4-120 47.6-24.5 9-70 24.5-88.2 30l-8.2 2.5-6.3-5.7c-3.5-3.1-10.7-9.6-16-14.4l-9.7-8.7H356c-19.5 0-28.8.4-30.3 1.2-1.2.6-8.8 7.1-16.8 14.5-8.1 7.3-15.4 13.3-16.4 13.3-2.9 0-68.5-22.2-94-31.8-26.4-9.9-48.1-18.6-89-35.7C54.6 247.6 10.1 230 7.2 230c-1 0-2.5.5-3.5 1.1zm117.9 59.5c18.5 7.8 49.8 20.2 73.4 29.1 28.5 10.8 96.1 33.3 100 33.3 3.2 0 3.2 0 23.4-18.3l13-11.7h47.7l16 14.5c13.6 12.3 16.6 14.5 19.2 14.5 8.7 0 101.6-32.2 155.5-53.9 12.2-4.9 22.2-8.8 22.2-8.6 0 .2-7.3 4.8-16.2 10.2-33.2 20-66.3 43.4-93.3 65.9-23.9 19.9-54.4 51.1-71.4 73.1l-6.4 8.3h-97.3l-9.4-11.8c-11.4-14.2-40-42.9-57-57.3-33.1-27.9-70.2-54.2-114.5-81.4-8.8-5.4-16.2-9.9-16.4-10.1-1.1-1 1.4-.1 11.5 4.2z"/><path d="M343.8 339.4c-14.5 4.2-25.8 17.3-25.8 30.1 0 11.1 8.1 29.7 16.6 38.3 9.4 9.3 18.8 11.5 29 6.8 14.5-6.7 28.7-31.5 27.1-47.2-1.1-10.6-9.2-21-20.2-26-7.1-3.3-19.1-4.2-26.7-2zm21.2 14.7c5.7 2.6 7.7 4.4 10.2 9.3 2.7 5.4 2 11.5-2.4 20.9-5.7 11.9-12.9 18.7-19.8 18.7-4 0-11.3-6.6-14.7-13.4-6.2-12.2-7.6-20.1-4.7-26.3 4.6-9.6 20.3-14.2 31.4-9.2z"/></svg>